<?xml version="1.0" encoding="UTF-8"?> <!-- Creator: CorelDRAW 2018 (64-Bit) --> <svg xmlns="http://www.w3.org/2000/svg" xmlns:xlink="http://www.w3.org/1999/xlink" xml:space="preserve" width="1170px" height="518px" style="shape-rendering:geometricPrecision; text-rendering:geometricPrecision; image-rendering:optimizeQuality; fill-rule:evenodd; clip-rule:evenodd" viewBox="0 0 1170000 518120"> <defs> <style type="text/css"> <![CDATA[ .fil0 {fill:black;fill-rule:nonzero} ]]> </style> </defs> <g id="Слой_x0020_1"> <metadata id="CorelCorpID_0Corel-Layer"></metadata> <path class="fil0" d="M240170 3720l950 60 1020 70 61340 3970 1020 60 230 20 7020 0 0 -6230 -145800 0 0 6230 6990 0 0 0 520 -70 32920 -4120 5520 700 0 3490 8210 0 5170 0 9320 0 0 -3490 5500 -700 70 10zm-230600 193680l8030 0 0 -710 -8030 0 0 710zm8030 1670l-8030 0 -1670 0 -7900 0 0 -199070 96420 0 0 840 0 198230 -8700 0c-21560,2320 -43110,4650 -64670,6970l-5450 -1300 0 -5670zm-8030 -4050l8030 0 0 -185450 -8030 0 0 185450zm11430 -82670l0 0c390,0 700,320 700,700l0 19010c0,380 -310,700 -700,700l0 0c-380,0 -690,-320 -690,-700l0 -19010c0,-380 310,-700 690,-700zm10450 13300c320,0 610,130 820,340 210,210 340,500 340,820 0,320 -130,610 -340,820l0 0c-210,210 -500,340 -820,340 -320,0 -610,-130 -820,-340 -210,-210 -340,-500 -340,-820 0,-320 130,-610 340,-820l0 0c210,-210 500,-340 820,-340zm350 820c-90,-90 -210,-150 -350,-150 -140,0 -260,60 -350,140l0 10c-90,80 -140,210 -140,340 0,140 50,260 140,350 90,90 220,150 350,150 140,0 260,-60 350,-150 90,-90 140,-210 140,-350 0,-130 -50,-260 -140,-340zm-1460 -2430c100,0 200,10 290,20 80,10 140,20 210,30 170,-30 340,-50 510,-50 710,0 1350,290 1810,750 460,470 750,1110 750,1810l0 2210c0,700 -290,1340 -750,1810 -460,460 -1100,750 -1810,750 -170,0 -340,-20 -510,-50 -60,10 -130,30 -210,30 -90,10 -190,20 -290,20 -700,0 -1340,-290 -1810,-750 -460,-470 -750,-1110 -750,-1810l0 -2210c0,-700 290,-1340 750,-1810 470,-460 1110,-750 1810,-750zm-970 940c-130,80 -250,170 -370,290 -340,340 -550,810 -550,1330l0 2210c0,520 210,990 550,1340 120,110 240,200 370,280 -280,-340 -480,-770 -550,-1240l-10 -20 0 0 0 -30 0 -20 0 -10 0 -10 -10 -10 0 -10 0 -20 0 -20 0 -10 0 -20 0 -10 -10 -20 0 -10 0 -20 0 -30 0 0 0 -10 0 -10 0 -20 0 -10 0 0 0 -30 0 0 0 -30 0 -2210 0 -30 0 0 0 -20 0 -10 0 -10 0 -20 0 -10 0 -10 0 0 0 -30 0 -20 0 -10 10 -20 0 0 0 -30 0 -10 0 -20 0 -20 0 -10 10 -10 0 -10 0 -10 0 -20 0 -30 0 0 10 -20c70,-470 270,-890 550,-1240zm1980 -270c-520,0 -990,210 -1340,560 -300,300 -500,710 -550,1160l0 10 0 20 0 0 0 20 0 0 0 20 0 0 0 20 0 10 0 10 0 10 0 10 0 20 0 0 0 20 0 2210 0 20 0 0 0 20 0 10 0 10 0 10 0 10 0 20 0 0 0 20 0 0 0 20 0 0 0 20 0 10c50,450 250,860 550,1170 350,340 820,550 1340,550 520,0 990,-210 1340,-550 340,-350 550,-820 550,-1340l0 -2210c0,-520 -210,-990 -550,-1330 -350,-350 -820,-560 -1340,-560zm10530 -6750l-8990 0 0 1280 8990 0 0 -1280zm-8250 -660l8920 0 0 2610 -9000 0c-210,390 -500,710 -850,950 -390,270 -860,430 -1370,430 -170,0 -340,-20 -500,-50 -70,10 -140,20 -210,30 -100,10 -200,20 -300,20 -710,0 -1350,-320 -1820,-820 -450,-500 -740,-1190 -740,-1950 0,-760 290,-1450 740,-1950 470,-510 1110,-820 1820,-820 100,0 200,0 300,10 70,10 140,30 210,40 160,-30 330,-50 500,-50 540,0 1050,180 1460,490 360,260 650,630 840,1060zm-2590 0l1180 0 330 0 330 0c-140,-210 -300,-390 -490,-530 -300,-220 -670,-350 -1060,-350 -250,0 -490,50 -710,150l0 0 -20 10 0 0 -10 0 -10 10 -10 0 -10 10 -10 0 -10 10 -10 0 -10 10 -10 0c-250,140 -480,340 -650,580 -210,290 -350,640 -400,1020l0 0 0 20c-10,20 -10,50 -10,70l0 20 0 0 0 20 0 10 -10 20 0 20 0 0 0 10 0 20 0 10 0 10 0 10 0 10 0 20 0 10 0 20 0 20 0 10 0 10 0 10 0 20 0 10 0 10 0 20 0 0 0 10 0 20 10 20 0 0 0 20 0 10 0 20c0,20 0,40 10,60l0 30 0 0c50,380 190,730 400,1020 170,240 400,440 650,580l10 0 10 10 10 0 10 0 10 10 10 0 10 10 10 0 10 10 0 0 20 10 0 0c220,100 460,150 710,150 370,0 710,-110 1000,-310 160,-110 300,-240 420,-400l-530 0 -1520 0 0 -2610 340 0zm1180 660l-850 0 0 1280 850 0 0 -1280zm-2900 -1150c30,-50 70,-100 110,-150 -160,100 -310,220 -440,360 -340,380 -560,910 -560,1500 0,590 220,1120 560,1500 130,140 280,260 440,350 -40,-40 -80,-90 -110,-140 -300,-410 -490,-920 -540,-1460l0 -10 0 0 0 -30 0 0 0 -30 0 -10 0 -20 0 -10 -10 -40 0 -10 0 -10 0 -20 0 -30 0 0 0 -30 0 -30 0 -10 0 -20 0 -20 0 -10 0 -20 10 -30 0 -10 0 -30 0 0 0 -30 0 0 0 -30 0 -10 0 0c50,-550 240,-1050 540,-1460zm58410 -108910l7020 0 0 -6230 -93080 0 0 6230 6230 0 0 0 9700 0 0 -3490 5490 -700 70 10 960 60 1020 70 61340 3970 1020 60 230 20zm7020 670l-6230 0 0 188830 6230 0 0 -188670 0 -160zm-86850 0l-6230 0 0 188830 6230 0 0 -2380 0 -186450zm15550 -3160l0 198910 63400 -6840 0 -187970 -63400 -4100zm-670 198840l0 -198820 -3510 450 0 3690 0 185450 0 4050 0 4350 3510 830zm631990 112740l45130 0 18630 -1200 5500 690 0 180 22700 0 0 -180 5490 -690 70 0 18560 1200 45130 0 0 -1450 -161210 0 0 1450zm45850 1630l0 40c-1780,100 -3560,200 -5330,300l-40520 2620 0 187970 63410 6840 0 -198910 -17560 1140zm-30020 40l-15830 0 0 880 15830 -880zm145380 0l-15830 0 15830 880 0 -880zm-45790 0l-60 0 0 -40 -17560 -1140 0 198910 63410 -6840 0 -187970 -41100 -2660 -4690 -260zm-23460 -330l-22700 0 0 1640 22700 0 0 -1640zm0 3310l-22700 0 0 1400 22700 0 0 -1400zm0 2070l-22700 0 0 183380 22700 0 0 -183380zm-91960 -8840l161210 0 0 -6570 -161210 0 0 6570zm161950 -10070l0 0c0,390 -320,700 -700,700l-19010 0c-380,0 -700,-310 -700,-700l0 0c0,-380 320,-690 700,-690l19010 0c390,0 700,310 700,690zm-144090 0l0 0c0,390 -310,700 -690,700l-16750 0c-380,0 -700,-310 -700,-700l0 0c0,-380 320,-690 700,-690l16750 0c380,0 690,310 690,690zm147190 -1670l-169640 0 830 3500 164970 0 3390 0 450 -3500zm-169650 -670l169640 0 -3720 -27340 -1950 0 -159500 190 -4470 27150zm171370 320l-700 5520 -3190 0 0 8690 0 3030 0 1290 0 188150 6230 0 0 -235170 0 -150 -6240 0 0 30 3900 28610zm-173130 130l-20 -80c1620,-9800 3230,-19590 4840,-29380l164310 0 0 0 0 20 6340 0 0 -6250 -177000 200 0 242240 6220 0 0 -188350 0 -1290 0 -3030 0 -8490 -3410 0 -1300 -5480 20 -110zm177140 -36520l0 244750 -8710 0c-21550,2320 -43110,4650 -64660,6970l-5450 -1300 0 -5670 -22700 0 0 5670c-1820,430 -3640,860 -5460,1300 -21260,-2290 -42530,-4590 -63800,-6880l0 100 -9570 0 0 -245570c60120,-70 120230,-140 180350,-200l0 830zm-101520 243070l22700 0 0 -700 -22700 0 0 700zm26130 -85060l0 0c380,0 690,320 690,700l0 19010c0,380 -310,700 -690,700l0 0c-390,0 -700,-320 -700,-700l0 -19010c0,-380 310,-700 700,-700zm10420 13320c320,0 610,130 820,340 210,210 340,500 340,820 0,320 -130,610 -340,820l0 0c-210,210 -500,340 -820,340 -320,0 -610,-130 -820,-340 -210,-210 -340,-500 -340,-820 0,-320 130,-610 340,-820l0 0c210,-210 500,-340 820,-340zm350 820c-90,-90 -220,-150 -350,-150 -140,0 -260,60 -350,140l0 10c-90,80 -150,210 -150,340 0,140 60,260 150,350 90,90 210,150 350,150 130,0 260,-60 350,-150 80,-90 140,-210 140,-350 0,-130 -60,-260 -140,-340zm-1460 -2430c90,0 190,10 290,20 70,10 140,20 210,30 160,-30 330,-50 510,-50 700,0 1340,290 1810,750 460,470 750,1110 750,1810l0 2210c0,700 -290,1340 -750,1810 -470,460 -1110,750 -1810,750 -180,0 -350,-20 -510,-50 -70,10 -140,30 -210,30 -100,10 -200,20 -290,20 -710,0 -1350,-290 -1810,-750 -470,-470 -750,-1110 -750,-1810l0 -2210c0,-700 280,-1340 750,-1810 460,-460 1100,-750 1810,-750zm-970 940c-140,80 -260,170 -370,290 -340,340 -560,810 -560,1330l0 2210c0,520 220,990 560,1340 110,110 230,200 370,280 -300,-360 -510,-820 -570,-1310l0 -10 0 -10 0 -10 0 -30 0 -20 -10 -10 0 -20 0 -10 0 -20 0 -10 0 -20 0 -30 0 0 0 -10 0 -10 0 -20 0 -10 0 0 -10 -30 0 0 0 -30 0 -2210 0 -30 0 0 10 -20 0 -10 0 -10 0 -20 0 -10 0 -10 0 0 0 -30 0 -20 0 -10 0 -20c0,-30 10,-60 10,-90l0 -10 0 -10 0 -10c60,-490 270,-950 570,-1310zm1980 -270c-520,0 -1000,210 -1340,560 -310,300 -510,710 -550,1160l0 10 0 20 0 0 0 20 0 0 0 20 0 0 0 20 -10 10 0 10 0 10 0 10 0 20 0 0 0 20 0 2210 0 20 0 0 0 20 0 10 0 10 0 10 10 10 0 20 0 0 0 20 0 0 0 20 0 0 0 20 0 10c40,450 240,860 550,1170 340,340 820,550 1340,550 520,0 990,-210 1330,-550 350,-350 560,-820 560,-1340l0 -2210c0,-520 -210,-990 -560,-1330 -340,-350 -810,-560 -1330,-560zm10520 -6750l-8990 0 0 1280 8990 0 0 -1280zm-8990 -660l10 0c-130,-220 -290,-410 -490,-560 -280,-200 -630,-320 -1070,-320 -470,0 -950,240 -1310,640 -350,370 -580,880 -580,1430l0 0 0 30 0 20 0 0c0,550 240,1050 580,1430 370,400 850,650 1310,650 450,0 800,-110 1070,-320 140,-100 260,-230 370,-390l-560 0 -1510 0 0 -2610 330 0 1180 0 340 0 330 0zm750 0l8910 0 0 2610 -8990 0c-190,370 -440,690 -760,930 -380,280 -850,450 -1460,450 -130,0 -270,-20 -410,-40 -130,30 -320,40 -600,40 -470,0 -1240,-390 -1800,-1000 -440,-480 -760,-1090 -760,-1770 0,-680 320,-1290 760,-1770 560,-610 1330,-1000 1800,-1000 280,0 470,10 600,40 130,-30 270,-40 410,-40 590,0 1080,170 1470,460 370,270 640,650 830,1090zm-1420 660l-840 0 0 1280 840 0 0 -1280zm-3440 560c0,-540 140,-1040 390,-1470 -50,50 -100,100 -150,150 -330,360 -580,820 -580,1320 0,490 250,950 580,1320 50,50 100,100 150,150 -250,-430 -390,-930 -390,-1470zm-6000 85730l0 -198820 -3500 450 0 3690 0 185450 0 4050 0 4350 3500 830zm-31300 -91920l0 0c-20,0 -30,10 -40,10 -10,0 -20,-10 -30,-10l0 0c-390,0 -700,320 -700,700l0 19010c0,380 310,700 700,700l0 0c10,0 20,0 30,0 10,0 20,0 40,0l0 0c380,0 690,-320 690,-700l0 -19010c0,-380 -310,-700 -690,-700zm-1750 91920l3500 -830 0 -193850 0 -3690 -3500 -450 0 198820zm320900 -194680l-17600 0 0 1400 17600 0 0 -1400zm-17600 -1670l17600 0 0 -1310 -17600 0 0 1310zm0 -2980l17600 0 0 -510 5490 -690 70 0 15430 1000 61640 -120 0 -190 5520 -700 90 10 7140 900 0 -10 25300 0 0 -1140 -258960 0 0 1450 22750 0 0 20 9780 -1230 5520 700 0 180 63590 0 13550 -870 5490 690 0 510zm94270 6050l5960 0 0 -1400 -5960 0 0 1400zm5960 670l-5960 0 0 183380 5960 0 0 -183380zm38050 -5360l-12040 0 12040 1510 0 -1510zm-249430 310l-9530 0 0 1200 9530 -1200zm211380 -330l-33450 70 20950 1190 12500 -30 0 -1230zm-119030 0l-230 0 -50220 3250 0 187970 63410 6840 0 -198910 -12960 840 0 10zm-26060 0l-37770 0 0 1640 8210 0 4330 0 25230 -1640zm-29560 3310l-1580 0 0 185450 1580 0 0 -185450zm-2250 0l-5960 0 0 1400 5960 0 0 -1400zm-7630 0l0 0 0 -3690 -3500 -450 0 198820 3500 -830 0 -4350 0 -4050 0 -185450zm7630 2070l-5960 0 0 183380 5960 0 0 -183380zm94270 0l-17600 0 0 183380 17600 0 0 -183380zm-138280 -8840l258960 0 0 -6570 -258960 0 0 6570zm259700 -10070l0 0c0,390 -310,700 -690,700l-19020 0c-380,0 -690,-310 -690,-700l0 0c0,-380 310,-690 690,-690l19020 0c380,0 690,310 690,690zm-241840 0l0 0c0,390 -320,700 -700,700l-16740 0c-390,0 -700,-310 -700,-700l0 0c0,-380 310,-690 700,-690l16740 0c380,0 700,310 700,690zm244940 -1670l-267400 0 840 3500 3760 0 258960 0 3400 0 440 -3500zm-267440 -670l267440 0 -3730 -27340 -259200 0 -4510 27340zm269160 320l-700 5520 -3190 0 0 11760 0 189400 6230 0 0 -235170 0 -150 -6240 0 0 30 3900 28610zm-3990 -29310l6330 0 0 -6250 -274760 0 0 6250 6350 0 0 -20 262080 0 0 20zm-262190 670l-6240 0 0 235320 6230 0 0 -189400 0 -11760 -3410 0 -1310 -5470 80 -450 0 -10 70 -440 10 -20 70 -430 0 -30 70 -420 10 -40 60 -410 10 -50 70 -390 10 -70 60 -380 10 -80 70 -370 10 -90 60 -360 20 -100 50 -350 20 -100 60 -340 20 -120 50 -330 20 -130 60 -320 20 -140 50 -310 20 -150 50 -300 30 -160 50 -290 30 -170 40 -270 30 -190 50 -260 30 -200 40 -250 30 -200 40 -250 40 -210 40 -240 30 -220 40 -220 40 -240 30 -210 50 -250 30 -200 40 -260 30 -190 50 -270 30 -180 40 -280 30 -170 50 -290 20 -150 50 -310 30 -140 50 -320 20 -130 50 -320 30 -130 50 -330 20 -120 60 -340 10 -100 60 -360 20 -90 60 -370 10 -80 60 -380 10 -70 70 -390 10 -60 60 -400 10 -50 70 -410 10 -30 60 -430 10 -20 70 -430 0 -20 80 -440 0 -10 70 -450 0 0 70 -450 10 -10 70 -430 0 -30 70 -420 10 -40 70 -410 0 -50 70 -400 10 -60 60 -390 10 -70 70 -380 10 -80 60 -360 20 -90 60 -360 10 -100 60 -350 20 -110 50 -340 20 -120 60 -330 20 -130 50 -310 70 -450 30 -160 50 -290 30 -170 40 -280 30 -180 50 -270 30 -190 40 -250 30 -200 40 -250 40 -210 40 -240 30 -220 40 -230zm270190 -7750l0 244750 -8660 0c-11150,2320 -22310,4650 -33470,6980l-5490 -1310 0 -5670 -8210 0 0 0 -4310 0c-21550,2320 -43110,4650 -64660,6970l-5450 -1300 0 -5670 -17600 0 0 5670c-1810,430 -3630,860 -5450,1300 -21550,-2320 -43110,-4650 -64660,-6970l-4310 0 -8210 0 0 5670 -5490 1310 -33470 -6980 -8660 0 0 -245590c92700,10 185400,10 278100,0l0 840zm-151280 158010l0 0c-10,0 -20,10 -30,10 -10,0 -20,-10 -30,-10l0 0c-390,0 -700,320 -700,700l0 19010c0,380 310,700 700,700l0 0c10,0 20,0 30,0 10,0 20,0 30,0l0 0c390,0 700,-320 700,-700l0 -19010c0,-380 -310,-700 -700,-700zm-1740 91920l3500 -830 0 -197540 -3500 -450 0 198820zm5170 -7560l0 700 17600 0 0 -700 -17600 0zm93600 -187120l-1580 0 0 185450 1580 0 0 -185450zm-1580 187820l8210 0 0 -700 -8210 0 0 700zm-1670 0l0 -2370 0 -185450 -1830 0 0 187820 1830 0zm13380 -85060l0 0c-390,0 -700,320 -700,700l0 19010c0,380 310,700 700,700l0 0c380,0 690,-320 690,-700l0 -19010c0,-380 -310,-700 -690,-700zm0 -103800l0 0c-390,0 -700,320 -700,700l0 19010c0,380 310,700 700,700l0 0c380,0 690,-320 690,-700l0 -19010c0,-380 -310,-700 -690,-700zm0 171000l0 0c-390,0 -700,320 -700,700l0 19010c0,380 310,700 700,700l0 0c380,0 690,-320 690,-700l0 -19010c0,-380 -310,-700 -690,-700zm2340 -174090l0 198830 32210 -6720 0 -188080 -32210 -4030zm-670 198810l0 -198820 -3500 450 0 3260 0 185880 0 4050 0 4350 3500 830zm-178150 -194680l0 187820 1830 0 0 -187820 -1830 0zm-1670 187820l0 -700 -8210 0 0 700 8210 0zm-11710 -85060l0 0c390,0 700,320 700,700l0 19010c0,380 -310,700 -700,700l0 0c-380,0 -690,-320 -690,-700l0 -19010c0,-380 310,-700 690,-700zm0 -103800l0 0c390,0 700,320 700,700l0 19010c0,380 -310,700 -700,700l0 0c-380,0 -690,-320 -690,-700l0 -19010c0,-380 310,-700 690,-700zm0 171000l0 0c390,0 700,320 700,700l0 19010c0,380 -310,700 -700,700l0 0c-380,0 -690,-320 -690,-700l0 -19010c0,-380 310,-700 690,-700zm107160 -67200l0 0c380,0 690,320 690,700l0 19010c0,380 -310,700 -690,700l0 0c-390,0 -700,-320 -700,-700l0 -19010c0,-380 310,-700 700,-700zm-109500 91940l0 -198830 -32210 4030 0 188080 32210 6720zm119920 -78620c320,0 610,130 820,340 210,210 340,500 340,820 0,320 -130,610 -340,820l0 0c-210,210 -500,340 -820,340 -320,0 -610,-130 -820,-340 -210,-210 -340,-500 -340,-820 0,-320 130,-610 340,-820l0 0c210,-210 500,-340 820,-340zm340 820c-80,-90 -210,-150 -340,-150 -140,0 -260,60 -350,140l0 10c-90,80 -150,210 -150,340 0,140 60,260 150,350 90,90 210,150 350,150 130,0 260,-60 350,-150 80,-90 140,-210 140,-350 0,-130 -60,-260 -150,-340zm-1450 -2430c90,0 190,10 290,20 70,10 140,20 210,30 160,-30 330,-50 510,-50 700,0 1340,290 1810,750 460,470 750,1110 750,1810l0 2210c0,700 -290,1340 -750,1810 -470,460 -1110,750 -1810,750 -180,0 -350,-20 -510,-50 -70,10 -140,30 -210,30 -100,10 -200,20 -290,20 -710,0 -1350,-290 -1810,-750 -470,-470 -750,-1110 -750,-1810l0 -2210c0,-700 280,-1340 750,-1810 460,-460 1100,-750 1810,-750zm-970 940c-140,80 -260,170 -370,290 -340,340 -560,810 -560,1330l0 2210c0,520 220,990 560,1340 110,110 230,200 370,280 -290,-340 -490,-770 -560,-1240l0 -20 -10 -50 0 -10 0 -10 0 -10 0 -30 -10 -20 0 -10 0 -30 0 -20 0 -10 0 -20 0 -30 0 0 0 -10 0 -10 0 -20 0 -10 0 0 -10 -30 0 0 0 -30 0 -2210 0 -30 0 0 10 -20 0 -10 0 -10 0 -20 0 -10 0 -10 0 0 0 -30 0 -20 0 -10 0 -20c0,-30 10,-60 10,-90l0 -10 0 -10 0 -10c60,-490 270,-950 570,-1310zm1980 -270c-520,0 -1000,210 -1340,560 -310,300 -510,710 -550,1160l0 10 0 20 0 0 0 20 0 0 0 20 0 0 0 20 -10 10 0 10 0 10 0 10 0 20 0 0 0 20 0 2210 0 20 0 0 0 20 0 10 0 10 0 10 10 10 0 20 0 0 0 20 0 0 0 20 0 0 0 20 0 10 0 10 0 10c50,440 250,850 550,1150 340,340 820,550 1340,550 520,0 990,-210 1330,-550 350,-350 560,-820 560,-1340l0 -2210c0,-520 -210,-990 -560,-1330 -340,-350 -810,-560 -1330,-560zm10520 -6750l-8990 0 0 1280 8990 0 0 -1280zm-8990 -660l10 0c-130,-220 -290,-410 -490,-560 -280,-200 -630,-320 -1070,-320 -470,0 -950,240 -1320,640 -340,370 -570,880 -570,1430l0 0 0 30 0 20 0 0c0,550 240,1050 580,1430 370,400 850,650 1310,650 450,0 800,-110 1060,-320 150,-100 270,-230 380,-390l-560 0 -1510 0 0 -2610 330 0 1180 0 340 0 330 0zm750 0l8910 0 0 2610 -8990 0c-190,370 -440,690 -760,930 -380,280 -850,450 -1460,450 -140,0 -270,-20 -410,-40 -130,30 -320,40 -600,40 -480,0 -1240,-390 -1800,-1000 -440,-480 -760,-1090 -760,-1770 0,-680 320,-1290 760,-1770 560,-610 1320,-1000 1800,-1000 280,0 470,10 600,40 130,-30 270,-40 410,-40 590,0 1080,170 1470,460 370,270 640,650 830,1090zm-1420 660l-840 0 0 1280 840 0 0 -1280zm-3440 560c0,-540 140,-1040 390,-1470 -50,50 -100,100 -150,150 -330,360 -580,820 -580,1320 0,490 250,950 580,1320 50,50 100,100 150,150 -250,-430 -390,-930 -390,-1470zm-5330 -113110l0 198910 63410 -6840 0 -187970 -63410 -4100zm-670 198840l0 -198820 -3500 450 0 189140 0 4050 0 4350 3500 830zm-26200 -403990l0 0c-10,0 -20,10 -30,10 -10,0 -20,-10 -30,-10l0 0c-390,0 -700,320 -700,700l0 19010c0,390 310,700 700,700l0 0c10,0 20,0 30,0 10,0 20,0 30,0l0 0c390,0 700,-310 700,-700l0 -19010c0,-380 -310,-700 -700,-700zm-5690 -106710l-60130 3890 0 187970 63410 6840 0 -198910 -3280 210zm3950 198630l3500 -830 0 -197540 -2080 -270 -1420 -180 0 198820zm-64920 -196350l64600 -4190 5480 700 10 0 0 870 60 2620 17540 0 0 -3490 5490 -700 70 10 64530 4180 0 0 4330 0 8210 0 0 -3490 5520 -700 90 10 33350 4180 6990 0 0 -6230 -274760 0 0 6230 6990 0 0 0 520 -70 32920 -4120 5520 700 0 3490 8210 0 4330 0zm70090 1670l0 185450 17600 0 0 -185450 -17600 0zm0 187120l0 710 17600 0 0 -710 -17600 0zm0 2380l0 5670c-1810,430 -3630,870 -5450,1300 -21550,-2320 -43110,-4650 -64660,-6970l-4310 0 -8210 0 0 5670 -5490 1310 -33470 -6980 -8660 0 0 -199070c92700,10 185400,10 278100,0l0 840 0 198230 -8660 0c-11150,2320 -22310,4650 -33470,6980l-5490 -1310 0 -5670 -8210 0 -1670 0 -2640 0c-21550,2320 -43110,4650 -64660,6970l-5450 -1300 0 -5670 -17600 0zm146180 -190500l-6230 0 0 188830 6230 0 0 -188670 0 -160zm-54160 188830l8210 0 0 -710 -8210 0 0 710zm0 -2380l1580 0 0 -185450 -1580 0 0 185450zm2250 0l5960 0 0 -185450 -5960 0 0 185450zm-3920 2380l0 -2380 0 -185450 -1830 0 0 187830 1830 0zm13380 -85070l0 0c-390,0 -700,320 -700,700l0 19010c0,390 310,700 700,700l0 0c380,0 690,-310 690,-700l0 -19010c0,-380 -310,-700 -690,-700zm0 -103800l0 0c-390,0 -700,320 -700,700l0 19010c0,380 310,700 700,700l0 0c380,0 690,-320 690,-700l0 -19010c0,-380 -310,-700 -690,-700zm0 171000l0 0c-390,0 -700,320 -700,700l0 19010c0,380 310,700 700,700l0 0c380,0 690,-320 690,-700l0 -19010c0,-380 -310,-700 -690,-700zm2340 -174090l0 198830 32210 -6720 0 -188080 -32210 -4030zm-670 198810l0 -198820 -3500 450 0 3690 0 185450 0 4050 0 4350 3500 830zm-178150 -194680l0 187830 1830 0 0 -187830 -1830 0zm-1670 187830l0 -710 -8210 0 0 710 8210 0zm0 -2380l0 -185450 -1580 0 0 185450 1580 0zm-2250 0l0 -185450 -5960 0 0 185450 5960 0zm-9460 -82690l0 0c390,0 700,320 700,700l0 19010c0,390 -310,700 -700,700l0 0c-380,0 -690,-310 -690,-700l0 -19010c0,-380 310,-700 690,-700zm0 -103800l0 0c390,0 700,320 700,700l0 19010c0,380 -310,700 -700,700l0 0c-380,0 -690,-320 -690,-700l0 -19010c0,-380 310,-700 690,-700zm0 171000l0 0c390,0 700,320 700,700l0 19010c0,380 -310,700 -700,700l0 0c-380,0 -690,-320 -690,-700l0 -19010c0,-380 310,-700 690,-700zm107160 -67200l0 0c380,0 690,320 690,700l0 19010c0,390 -310,700 -690,700l0 0c-390,0 -700,-310 -700,-700l0 -19010c0,-380 310,-700 700,-700zm-108830 -106900l0 198820 3500 -830 0 -4350 0 -4050 0 -185450 0 -3690 -3500 -450zm-670 198840l0 -198830 -32210 4030 0 188080 32210 6720zm119920 -78620c320,0 610,130 820,340 210,210 340,500 340,820 0,320 -130,610 -340,820l0 0c-210,210 -500,340 -820,340 -320,0 -610,-130 -820,-340 -210,-210 -340,-500 -340,-820 0,-320 130,-610 340,-820l0 0c210,-210 500,-340 820,-340zm340 820c-80,-90 -210,-150 -340,-150 -140,0 -260,60 -350,140l0 10c-90,80 -150,210 -150,340 0,140 60,260 150,350 90,90 210,150 350,150 130,0 260,-60 350,-150 80,-90 140,-210 140,-350 0,-130 -60,-260 -150,-340zm-1450 -2430c90,0 190,10 290,20 70,10 140,20 210,30 160,-30 330,-50 510,-50 700,0 1340,290 1810,750 460,470 750,1110 750,1810l0 2210c0,700 -290,1340 -750,1810 -470,460 -1110,750 -1810,750 -180,0 -350,-20 -510,-50 -70,10 -140,30 -210,30 -100,10 -200,20 -290,20 -710,0 -1350,-290 -1810,-750 -470,-470 -750,-1110 -750,-1810l0 -2210c0,-700 280,-1340 750,-1810 460,-460 1100,-750 1810,-750zm-970 940c-140,80 -260,170 -370,290 -340,340 -560,810 -560,1330l0 2210c0,520 220,990 560,1340 110,110 230,200 370,280 -290,-340 -490,-770 -560,-1240l0 -20 -10 -50 0 -10 0 -10 0 -10 0 -30 -10 -20 0 -10 0 -30 0 -20 0 -10 0 -20 0 -30 0 0 0 -10 0 -10 0 -20 0 -10 0 0 -10 -30 0 0 0 -30 0 -2210 0 -30 0 0 10 -20 0 -10 0 -10 0 -20 0 -10 0 -10 0 0 0 -30 0 -20 0 -10 0 -20c0,-30 10,-60 10,-90l0 -10 0 -10 0 -10c60,-490 270,-950 570,-1310zm1980 -270c-520,0 -1000,210 -1340,560 -310,300 -510,710 -550,1160l0 10 0 20 0 0 0 20 0 0 0 20 0 0 0 20 -10 10 0 10 0 10 0 10 0 20 0 0 0 20 0 2210 0 20 0 0 0 20 0 10 0 10 0 10 10 10 0 20 0 0 0 20 0 0 0 20 0 0 0 20 0 10 0 10 0 10c50,450 250,850 550,1150 340,340 820,550 1340,550 520,0 990,-210 1330,-550 350,-350 560,-820 560,-1340l0 -2210c0,-520 -210,-990 -560,-1330 -340,-350 -810,-560 -1330,-560zm10520 -6750l-8990 0 0 1280 8990 0 0 -1280zm-8990 -660l10 0c-130,-220 -290,-410 -490,-560 -280,-200 -630,-320 -1070,-320 -470,0 -950,240 -1320,640 -340,370 -570,880 -570,1430l0 10 0 20 0 20 0 0c0,550 240,1050 580,1430 370,400 850,650 1310,650 450,0 800,-110 1060,-320 150,-100 270,-230 380,-390l-560 0 -1510 0 0 -2610 330 0 1180 0 340 0 330 0zm750 0l8910 0 0 2610 -8990 0c-190,370 -440,690 -760,930 -380,280 -850,450 -1460,450 -140,0 -270,-20 -410,-40 -130,30 -320,40 -600,40 -480,0 -1240,-390 -1800,-1000 -440,-480 -760,-1090 -760,-1770 0,-680 320,-1290 760,-1770 560,-610 1320,-1000 1800,-1000 280,0 470,10 600,40 130,-30 270,-40 410,-40 590,0 1080,170 1470,460 370,270 640,650 830,1090zm-1420 660l-840 0 0 1280 840 0 0 -1280zm-3440 560c0,-540 140,-1040 390,-1470 -50,50 -100,100 -150,150 -330,360 -580,830 -580,1320 0,490 250,950 580,1320 50,50 100,100 150,150 -250,-430 -390,-930 -390,-1470zm-151120 -109950l-6230 0 0 188830 6230 0 0 -188830zm145790 -3160l0 198910 63410 -6840 0 -187970 -63410 -4100zm-670 198840l0 -198820 -3500 450 0 3690 0 185450 0 4050 0 4350 3500 830zm-319820 -91920l0 0c-10,0 -20,10 -30,10 -10,0 -20,-10 -30,-10l0 0c-390,0 -700,320 -700,700l0 19010c0,390 310,700 700,700l0 0c10,0 20,0 30,0 10,0 20,0 30,0l0 0c390,0 700,-310 700,-700l0 -19010c0,-380 -310,-700 -700,-700zm-65820 85150l63410 6840 0 -198910 -63410 4100 0 187970zm64080 6770l3500 -830 0 -193850 0 -3690 -3500 -450 0 198820zm-63770 -196430l63450 -4110 5490 700 0 3490 16690 0 0 -3490 5500 -700 70 10 950 60 1020 70 59300 3840 1020 60 1020 70 1020 60 240 20 7010 0 0 -6230 -170980 0 0 6230 7010 0 1190 -80zm68940 1750l0 185450 16690 0 0 -185450 -16690 0zm0 189500l0 5670c-1810,430 -3630,870 -5450,1300 -21550,-2320 -43110,-4650 -64660,-6970l-8710 0 0 -199070 174330 0 0 840 0 198230 -8700 0c-21560,2320 -43110,4650 -64660,6970l-5460 -1300 0 -5670 -16690 0zm230 -1670l16460 0 0 -710 -16460 0 0 710zm19890 -85070l0 0c390,0 700,320 700,700l0 19010c0,390 -310,700 -700,700l0 0c-380,0 -690,-310 -690,-700l0 -19010c0,-380 310,-700 690,-700zm10420 13320c320,0 620,130 830,340 210,210 340,500 340,820 0,320 -130,610 -340,820l-10 0c-210,210 -500,340 -820,340 -320,0 -610,-130 -820,-340 -210,-210 -340,-500 -340,-820 0,-320 130,-610 340,-820l0 0c210,-210 510,-340 820,-340zm350 820c-90,-90 -210,-150 -350,-150 -130,0 -260,60 -340,140l-10 10c-80,80 -140,210 -140,340 0,140 60,260 150,350 80,90 210,150 340,150 140,0 260,-60 350,-150 90,-90 150,-210 150,-350 0,-130 -60,-260 -150,-340zm-1460 -2430c100,0 200,10 300,20 70,10 140,20 210,30 160,-30 330,-50 500,-50 710,0 1350,290 1810,750 470,470 750,1110 750,1810l0 2210c0,700 -280,1340 -750,1810 -460,460 -1100,750 -1810,750 -170,0 -340,-20 -500,-50 -70,10 -140,30 -210,30 -100,10 -200,20 -300,20 -700,0 -1340,-290 -1810,-750 -460,-470 -750,-1110 -750,-1810l0 -2210c0,-700 290,-1340 750,-1810 470,-460 1110,-750 1810,-750zm-960 940c-140,80 -260,170 -370,290 -350,340 -560,810 -560,1330l0 2210c0,520 210,990 560,1340 110,110 230,200 370,280 -290,-340 -490,-770 -560,-1240l0 -20 -10 -50 0 -10 0 -10 0 -10 -10 -30 0 -20 0 -10 0 -20 0 -10 0 -20 0 -10 0 -20 -10 -30 0 0 0 -10 0 -10 0 -20 0 -10 0 0 0 -30 0 0 0 -30 0 -2210 0 -30 0 0 0 -20 0 -10 0 -10 0 -20 0 -10 0 -10 0 0 10 -30 0 -20 0 -10 0 -20 0 0 0 -30 0 -10 0 -20 10 -30 0 -10 0 -10 0 -10 10 -50 0 -20c70,-470 270,-890 560,-1240zm1970 -270c-520,0 -990,210 -1330,560 -310,300 -510,710 -550,1160l0 10 0 20 0 0 -10 20 0 0 0 20 0 0 0 20 0 10 0 10 0 10 0 10 0 20 0 0 0 20 0 2210 0 20 0 0 0 20 0 10 0 10 0 10 0 10 0 20 0 0 0 20 0 0 10 20 0 0 0 20 0 10c40,450 240,860 550,1170 340,340 810,550 1330,550 520,0 1000,-210 1340,-550 340,-350 560,-820 560,-1340l0 -2210c0,-520 -220,-990 -560,-1330 -340,-350 -820,-560 -1340,-560zm10530 -6750l-8990 0 0 1280 8990 0 0 -1280zm-8990 -660l0 0c-130,-220 -290,-410 -480,-560 -280,-200 -630,-320 -1070,-320 -470,0 -950,240 -1320,640 -340,370 -570,880 -580,1430l0 10 0 20 0 20 0 0c10,550 240,1050 580,1430 370,400 860,650 1320,650 450,0 790,-110 1060,-320 140,-100 270,-230 380,-390l-560 0 -1510 0 0 -2610 330 0 1180 0 330 0 340 0zm750 0l8910 0 0 2610 -9000 0c-190,370 -430,690 -750,930 -380,280 -860,450 -1460,450 -140,0 -270,-20 -410,-40 -130,30 -320,40 -600,40 -480,0 -1240,-390 -1800,-1000 -440,-480 -770,-1090 -770,-1770 0,-680 330,-1290 770,-1770 560,-610 1320,-1000 1800,-1000 280,0 470,10 600,40 130,-30 270,-40 410,-40 590,0 1080,170 1470,460 360,270 640,650 830,1090zm-1420 1940l0 -1280 -850 0 0 1280 850 0zm-3450 -720c0,-540 150,-1040 390,-1470 -50,50 -90,100 -140,150 -340,360 -590,830 -590,1320 0,490 250,950 590,1320 50,50 90,100 140,150 -240,-430 -390,-930 -390,-1470zm65980 -109950l-6220 0c0,62940 0,125880 0,188830l6220 0 0 -188670 0 -160zm-164760 0l-6220 0 0 188830 6220 0 0 -188830zm93460 -3160l0 198910 63410 -6840 0 -187970 -63410 -4100zm-670 198840l0 -198820 -3510 450 0 3690 0 185450 0 4050 0 4350 3510 830zm-177200 -196350l6990 0 0 -6230 -197240 0 0 6230 6990 0 0 0 520 -70 32920 -4120 5520 700 0 3490 8210 0 5170 0 9320 0 0 -3490 5500 -700 70 10 64520 4180 0 0 4340 0 8200 0 0 -3490 5530 -700 90 10 33350 4180zm6990 670l-6230 0 0 188830 6230 0 0 -188670 0 -160zm-54160 188830l8200 0 0 -710 -8200 0 0 710zm0 -2380l1580 0 0 -185450 -1580 0 0 185450zm2250 0l5950 0 0 -185450 -5950 0 0 185450zm5950 4050l-8200 0 -1680 0 -2630 0c-21560,2320 -43110,4650 -64660,6970l-5460 -1300 0 -5670 -9320 0 -5170 0 -8210 0 0 5670 -5490 1310 -33480 -6980 -8650 0 0 -199070 200580 0 0 840 0 198230 -8660 0c-11160,2320 -22310,4650 -33470,6980l-5500 -1310 0 -5670zm-9880 -1670l0 -2380 0 -185450 -1820 0 0 187830 1820 0zm13380 -85070l0 0c-380,0 -690,320 -690,700l0 19010c0,390 310,700 690,700l0 0c390,0 700,-310 700,-700l0 -19010c0,-380 -310,-700 -700,-700zm0 -103800l0 0c-380,0 -690,320 -690,700l0 19010c0,380 310,700 690,700l0 0c390,0 700,-320 700,-700l0 -19010c0,-380 -310,-700 -700,-700zm0 171000l0 0c-380,0 -690,320 -690,700l0 19010c0,380 310,700 690,700l0 0c390,0 700,-320 700,-700l0 -19010c0,-380 -310,-700 -700,-700zm2350 -174090l0 198830 32210 -6720 0 -188080 -32210 -4030zm-670 198810l0 -198820 -3500 450 0 3690 0 185450 0 4050 0 4350 3500 830zm-100630 -194680l0 187830 1830 0 0 -187830 -1830 0zm-1670 187830l0 -710 -8210 0 0 710 8210 0zm0 -2380l0 -185450 -1590 0 0 185450 1590 0zm5170 -185450l0 185450 1590 0 0 -185450 -1590 0zm0 187120l0 710 9320 0 0 -710 -9320 0zm-7430 -1670l0 -185450 -5950 0 0 185450 5950 0zm9690 -185450l0 185450 7060 0 0 -185450 -7060 0zm-19140 102760l0 0c390,0 700,320 700,700l0 19010c0,390 -310,700 -700,700l0 0c-380,0 -690,-310 -690,-700l0 -19010c0,-380 310,-700 690,-700zm0 -103800l0 0c390,0 700,320 700,700l0 19010c0,380 -310,700 -700,700l0 0c-380,0 -690,-320 -690,-700l0 -19010c0,-380 310,-700 690,-700zm0 171000l0 0c390,0 700,320 700,700l0 19010c0,380 -310,700 -700,700l0 0c-380,0 -690,-320 -690,-700l0 -19010c0,-380 310,-700 690,-700zm29630 -67200l0 0c390,0 700,320 700,700l0 19010c0,390 -310,700 -700,700l0 0c-380,0 -690,-310 -690,-700l0 -19010c0,-380 310,-700 690,-700zm-31300 -106900l0 198820 3500 -830 0 -4350 0 -4050 0 -185450 0 -3690 -3500 -450zm-670 198840l0 -198830 -32210 4030 0 188080 32210 6720zm42390 -78620c320,0 610,130 820,340 210,210 340,500 340,820 0,320 -130,610 -340,820l0 0c-210,210 -500,340 -820,340 -320,0 -610,-130 -820,-340 -210,-210 -340,-500 -340,-820 0,-320 130,-610 340,-820l0 0c220,-210 500,-340 820,-340zm350 820c-90,-90 -210,-150 -350,-150 -130,0 -260,60 -340,140l-10 10c-80,80 -140,210 -140,340 0,140 60,260 150,350 80,90 210,150 340,150 140,0 260,-60 350,-150 90,-90 150,-210 150,-350 0,-130 -60,-260 -150,-340zm-1460 -2430c100,0 200,10 300,20 70,10 140,20 210,30 160,-30 330,-50 500,-50 710,0 1350,290 1810,750 470,470 750,1110 750,1810l0 2210c0,700 -280,1340 -750,1810 -460,460 -1100,750 -1810,750 -170,0 -340,-20 -500,-50 -70,10 -140,30 -210,30 -100,10 -200,20 -300,20 -700,0 -1340,-290 -1810,-750 -460,-470 -750,-1110 -750,-1810l0 -2210c0,-700 290,-1340 750,-1810 470,-460 1110,-750 1810,-750zm-960 940c-140,80 -260,170 -370,290 -350,340 -560,810 -560,1330l0 2210c0,520 210,990 560,1340 110,110 230,200 370,280 -310,-360 -510,-820 -570,-1310l0 -10 0 -10 0 -10 -10 -30 0 -20 0 -10 0 -20 0 -10 0 -20 0 -10 -10 -20 0 -30 0 0 0 -10 0 -10 0 -20 0 -10 0 0 0 -30 0 0 0 -30 0 -2210 0 -30 0 0 0 -20 0 -10 0 -10 0 -20 0 -10 0 -10 0 0 0 -30 10 -20 0 -10 0 -20c0,-30 0,-60 10,-90l0 -10 0 -10 0 -10c60,-490 260,-950 570,-1310zm1970 -270c-520,0 -990,210 -1330,560 -310,300 -510,710 -550,1160l0 10 0 20 0 0 -10 20 0 0 0 20 0 0 0 20 0 10 0 10 0 10 0 10 0 20 0 0 0 20 0 2210 0 20 0 0 0 20 0 10 0 10 0 10 0 10 0 20 0 0 0 20 0 0 10 20 0 0 0 20 0 10c40,450 240,860 550,1170 340,340 810,550 1330,550 520,0 1000,-210 1340,-550 340,-350 560,-820 560,-1340l0 -2210c0,-520 -220,-990 -560,-1330 -340,-350 -820,-560 -1340,-560zm10530 -6750l-8990 0 0 1280 8990 0 0 -1280zm-8990 -660l0 0c-130,-220 -290,-410 -480,-560 -280,-200 -630,-320 -1070,-320 -470,0 -960,240 -1320,640 -340,370 -570,880 -580,1430l0 10 0 20 0 20 0 0c10,550 240,1050 580,1430 370,400 860,650 1320,650 450,0 790,-110 1060,-320 140,-100 270,-230 380,-390l-560 0 -1510 0 0 -2610 330 0 1180 0 330 0 340 0zm750 0l8910 0 0 2610 -9000 0c-190,370 -430,690 -750,930 -380,280 -860,450 -1460,450 -140,0 -280,-20 -410,-40 -130,30 -320,40 -600,40 -480,0 -1240,-390 -1800,-1000 -440,-480 -770,-1090 -770,-1770 0,-680 330,-1290 770,-1770 560,-610 1320,-1000 1800,-1000 280,0 470,10 590,40 140,-30 280,-40 420,-40 590,0 1080,170 1470,460 360,270 640,650 830,1090zm-1420 660l-850 0 0 1280 850 0 0 -1280zm-3450 560c0,-540 150,-1040 390,-1470 -50,50 -100,100 -140,150 -340,360 -590,830 -590,1320 0,490 250,950 590,1320 40,50 90,100 140,150 -240,-430 -390,-930 -390,-1470zm-73600 -109950l-6220 0 0 188830 6220 0 0 -188830zm68280 -3160l0 198910 63410 -6840 0 -187970 -63410 -4100zm-670 198840l0 -198820 -3510 450 0 3690 0 185450 0 4050 0 4350 3510 830zm68490 118790l5960 0 0 -1820c-1990,10 -3970,20 -5960,20l0 1800zm5960 670l-5960 0 0 183380 5960 0 0 -183380zm12750 -7030l25300 0 0 -1140 -181440 0 0 1450 22750 0 0 20 9780 -1230 5530 700 0 180 22700 0 0 -180 5490 -690 70 0 15440 1000 61630 -120 0 -190 5520 -700 90 10 7140 900 0 -10zm25300 1670l-12040 0 12040 1510 0 -1510zm-171910 310l-9530 0 0 1200 9530 -1200zm133860 -330l-33450 70 20950 1190 12500 -30 0 -1230zm-6620 2920l-1590 0 0 185840 1590 0 0 -185840zm-76010 -2920l-22700 0 0 1640 8200 0 5170 0 9330 0 0 -1640zm0 3310l-7070 0 0 1400 7070 0 0 -1400zm-7740 0l-1590 0 0 185450 1590 0 0 -185450zm-6760 0l-1580 0 0 185450 1580 0 0 -185450zm-2250 0l-5950 0 0 1400 5950 0 0 -1400zm0 2070l-5950 0 0 183380 5950 0 0 -183380zm16750 0l-7070 0 0 183380 7070 0 0 -183380zm-60760 -8840l181440 0 0 -6570 -181440 0 0 6570zm182180 -10070l0 0c0,390 -310,700 -690,700l-19010 0c-390,0 -700,-310 -700,-700l0 0c0,-380 310,-690 700,-690l19010 0c380,0 690,310 690,690zm-164320 0l0 0c0,390 -310,700 -700,700l-16740 0c-380,0 -700,-310 -700,-700l0 0c0,-380 310,-690 700,-690l16740 0c390,0 700,310 700,690zm167420 -1670l-189880 0 840 3500 3760 0 181440 0 3400 0 440 -3500zm-189910 -670l189910 0 -3730 -27340 -181680 0 -4500 27340zm191630 320l-690 5520 -3190 0 0 11760 0 189400 6220 0 0 -235170 0 -150 -6240 0 10 30 3890 28610zm-3990 -29310l6330 0 0 -6250 -197240 0 0 6250 6350 0 10 -20 184550 0 0 20zm-184670 670l-6240 0 0 235320 6230 0 0 -189400 0 -11760 -3410 0 -1300 -5470 70 -450 0 -10 70 -440 10 -20 70 -430 0 -30 70 -420 10 -40 70 -410 10 -50 60 -390 10 -70 60 -380 20 -80 60 -370 10 -90 60 -360 20 -100 60 -350 10 -100 60 -340 20 -120 50 -330 30 -130 50 -320 20 -140 50 -310 30 -150 50 -300 20 -160 50 -290 30 -170 40 -270 30 -190 50 -260 30 -200 40 -250 40 -200 30 -250 40 -210 40 -240 40 -220 30 -220 40 -240 40 -210 40 -250 30 -200 40 -260 30 -190 50 -270 30 -180 40 -280 30 -170 50 -290 30 -150 50 -310 20 -140 50 -320 20 -130 60 -320 20 -130 50 -330 20 -120 60 -340 10 -100 60 -360 20 -90 60 -370 10 -80 70 -380 10 -70 60 -390 10 -60 70 -400 0 -50 70 -410 10 -30 70 -430 0 -20 70 -430 10 -20 70 -440 0 -10 70 -450 0 0 80 -450 0 -10 70 -430 10 -30 70 -420 0 -40 70 -410 10 -50 60 -400 10 -60 70 -390 10 -70 60 -380 10 -80 60 -360 20 -90 60 -360 10 -100 60 -350 20 -110 50 -340 30 -120 50 -330 20 -130 50 -310 80 -450 20 -160 50 -290 30 -170 40 -280 30 -180 50 -270 30 -190 40 -250 30 -200 50 -250 30 -210 40 -240 40 -220 30 -230zm192670 -7750l0 244750 -8650 0c-11160,2320 -22320,4650 -33480,6980l-5490 -1310 0 -5670 -8210 0 0 0 -4310 0c-21550,2320 -43100,4650 -64660,6970l-5450 -1300 0 -5670 -9330 0 -5170 0 -8200 0 0 5670 -5500 1310 -33470 -6980 -8660 0 0 -245590 200580 0 0 840zm-55830 243070l8210 0 0 -700 -8210 0 0 700zm-1670 0l0 -2370 0 -185450 -1830 0c10,62610 10,125220 0,187820l1830 0zm13380 -85060l0 0c-390,0 -700,320 -700,700l0 19010c0,380 310,700 700,700l0 0c380,0 690,-320 690,-700l0 -19010c0,-380 -310,-700 -690,-700zm0 -103800l0 0c-390,0 -700,320 -700,700l0 19010c0,380 310,700 700,700l0 0c380,0 690,-320 690,-700l0 -19010c0,-380 -310,-700 -690,-700zm0 171000l0 0c-390,0 -700,320 -700,700l0 19010c0,380 310,700 700,700l0 0c380,0 690,-320 690,-700l0 -19010c0,-380 -310,-700 -690,-700zm2340 -174090l0 198830 32210 -6720 0 -188080 -32210 -4030zm-670 198810l0 -198820 -3500 450 0 3260 0 185880 0 4050 0 4350 3500 830zm-100620 -194680l0 187820 1820 0 0 -187820 -1820 0zm-1680 187820l0 -700 -8200 0 0 700 8200 0zm5170 -700l0 700 9330 0 0 -700 -9330 0zm-16870 -84360l0 0c380,0 690,320 690,700l0 19010c0,380 -310,700 -690,700l0 0c-390,0 -700,-320 -700,-700l0 -19010c0,-380 310,-700 700,-700zm0 -103800l0 0c380,0 690,320 690,700l0 19010c0,380 -310,700 -690,700l0 0c-390,0 -700,-320 -700,-700l0 -19010c0,-380 310,-700 700,-700zm0 171000l0 0c380,0 690,320 690,700l0 19010c0,380 -310,700 -690,700l0 0c-390,0 -700,-320 -700,-700l0 -19010c0,-380 310,-700 700,-700zm29630 -67200l0 0c380,0 690,320 690,700l0 19010c0,380 -310,700 -690,700l0 0c-390,0 -700,-320 -700,-700l0 -19010c0,-380 310,-700 700,-700zm-31310 -106900l0 198820 3500 -830 0 -4350 0 -4050 0 -185450 0 -3690 -3500 -450zm-670 198840l0 -198830 -32210 4030 0 188080 32210 6720zm42400 -78620c320,0 610,130 820,340 210,210 340,500 340,820 0,320 -130,610 -340,820l0 0c-210,210 -500,340 -820,340 -320,0 -610,-130 -820,-340 -210,-210 -340,-500 -340,-820 0,-320 130,-610 340,-820l0 0c210,-210 500,-340 820,-340zm350 820c-90,-90 -220,-150 -350,-150 -140,0 -260,60 -350,140l0 10c-90,80 -140,210 -140,340 0,140 50,260 140,350 90,90 210,150 350,150 130,0 260,-60 350,-150 90,-90 140,-210 140,-350 0,-130 -50,-260 -140,-340zm-1460 -2430c90,0 190,10 290,20 70,10 140,20 210,30 160,-30 330,-50 510,-50 700,0 1340,290 1810,750 460,470 750,1110 750,1810l0 2210c0,700 -290,1340 -750,1810 -470,460 -1110,750 -1810,750 -180,0 -350,-20 -510,-50 -70,10 -140,30 -210,30 -100,10 -200,20 -290,20 -710,0 -1350,-290 -1810,-750 -470,-470 -750,-1110 -750,-1810l0 -2210c0,-700 280,-1340 750,-1810 460,-460 1100,-750 1810,-750zm-970 940c-130,80 -260,170 -370,290 -340,340 -560,810 -560,1330l0 2210c0,520 220,990 560,1340 110,110 240,200 370,280 -300,-360 -510,-820 -570,-1310l0 -10 0 -10 0 -10 0 -30 0 -20 -10 -10 0 -20 0 -10 0 -20 0 -10 0 -20 0 -30 0 0 0 -10 0 -10 0 -20 0 -10 0 0 0 -30 0 0 0 -30 0 -2210 0 -30 0 0 0 -20 0 -10 0 -10 0 -20 0 -10 0 -10 0 0 0 -30 0 -20 0 -10 0 -20c0,-30 10,-60 10,-90l0 -10 0 -10 0 -10c60,-490 270,-950 570,-1310zm1980 -270c-520,0 -1000,210 -1340,560 -310,300 -510,710 -550,1160l0 10 0 20 0 0 0 20 0 0 0 20 0 0 0 20 0 10 0 10 0 10 -10 10 0 20 0 0 0 20 0 2210 0 20 0 0 0 20 10 10 0 10 0 10 0 10 0 20 0 0 0 20 0 0 0 20 0 0 0 20 0 10c40,450 240,860 550,1170 340,340 820,550 1340,550 520,0 990,-210 1330,-550 350,-350 560,-820 560,-1340l0 -2210c0,-520 -210,-990 -560,-1330 -340,-350 -810,-560 -1330,-560zm10530 -6750l-9000 0 0 1280 9000 0 0 -1280zm-9000 -660l10 0c-130,-220 -290,-410 -490,-560 -270,-200 -630,-320 -1070,-320 -470,0 -950,240 -1320,640 -340,370 -570,880 -570,1430l0 0 0 30 0 20 0 0c0,550 240,1050 580,1430 370,400 850,650 1310,650 450,0 800,-110 1060,-320 150,-100 270,-230 380,-390l-560 0 -1510 0 0 -2610 330 0 1180 0 340 0 330 0zm750 0l8910 0 0 2610 -8990 0c-190,370 -440,690 -750,930 -390,280 -860,450 -1470,450 -140,0 -270,-20 -410,-40 -120,30 -320,40 -600,40 -470,0 -1240,-390 -1800,-1000 -430,-480 -760,-1090 -760,-1770 0,-680 330,-1290 760,-1770 560,-610 1330,-1000 1800,-1000 280,0 470,10 600,40 140,-30 270,-40 410,-40 590,0 1080,170 1470,460 370,270 640,650 830,1090zm-1420 660l-840 0 0 1280 840 0 0 -1280zm-3440 560c0,-540 140,-1040 390,-1470 -50,50 -100,100 -150,150 -330,360 -580,820 -580,1320 0,490 250,950 580,1320 50,50 100,100 150,150 -250,-430 -390,-930 -390,-1470zm-5330 -113110l0 198910 63410 -6840 0 -187970 -63410 -4100zm-670 198840l0 -198820 -3500 450 0 3690 0 185450 0 4050 0 4350 3500 830zm-271900 -197660l-9530 0 0 1200 9530 -1200zm-9530 -1670l22750 0 0 20 9790 -1230 5520 700 0 180 22700 0 0 -180 5490 -690 70 0 18560 1200 45130 0 0 -1450 -130010 0 0 1450zm130010 1670l-15830 0 15830 880 0 -880zm-45790 0l-60 0 10 -40 -17570 -1140 0 198910 63410 -6840 0 -187970 -41100 -2660 -4690 -260zm-23460 -330l-22700 0 0 1640 8240 0 5100 0 9360 0 0 -1640zm0 3310l-9360 0 0 1400 9360 0 0 -1400zm-14460 0l-8240 0 0 1400 8240 0 0 -1400zm0 2070l-1260 0 0 183380 1260 0 0 -183380zm-1930 0l-6310 0 0 183380 6310 0 0 -183380zm16390 0l-7430 0 0 183380 7430 0 0 -183380zm-8100 0l-1260 0 0 183380 1260 0 0 -183380zm-52660 -8840l130010 0 0 -6570c-43340,10 -86670,10 -130010,0l0 6570zm130750 -10070l0 0c0,390 -310,700 -700,700l-19010 0c-380,0 -690,-310 -690,-700l0 0c0,-380 310,-690 690,-690l19010 0c390,0 700,310 700,690zm-112890 0l0 0c0,390 -310,700 -690,700l-16750 0c-380,0 -700,-310 -700,-700l0 0c0,-380 320,-690 700,-690l16750 0c380,0 690,310 690,690zm115990 -1670l-138440 0 830 3500 133770 0 3400 0 440 -3500zm-138450 -670l138450 0 -3730 -27340 -1410 0 -128840 190 -4470 27150zm139470 5840l-3190 0 0 8690 0 3030 0 1290 0 188150 6230 0 0 -235170 0 -150 -6240 0 0 30 3900 28610 -700 5520zm-141230 -5390l-20 -80c1580,-9560 3150,-19110 4720,-28670l-6230 0 0 235500 6220 0 0 -189600 0 -11560 -3410 0 -1300 -5480 20 -110zm4810 -29410l10 -50 133110 0 10 0 0 20 6330 0 0 -6250 -145800 200 0 6080 6340 0zm141130 -7110l0 244750 -8710 0c-21550,2320 -43100,4650 -64660,6970l-5450 -1300 0 -5670 -9360 0 -5100 0 -8240 0 0 5670 -5500 1310 -32560 -6790 0 0 -9570 0 0 -245570c49720,-70 99430,-130 149150,-200l0 830zm-91610 55250l0 187820 1760 0 0 -187820 -1760 0zm-1670 187820l0 -700 -8240 0 0 700 8240 0zm5100 -700l0 700 9360 0 0 -700 -9360 0zm-16840 -84360l0 0c380,0 700,320 700,700l0 19010c0,380 -320,700 -700,700l0 0c-380,0 -700,-320 -700,-700l0 -19010c0,-380 320,-700 700,-700zm0 -103800l0 0c380,0 700,320 700,700l0 19010c0,380 -320,700 -700,700l0 0c-380,0 -700,-320 -700,-700l0 -19010c0,-380 320,-700 700,-700zm0 171000l0 0c380,0 700,320 700,700l0 19010c0,380 -320,700 -700,700l0 0c-380,0 -700,-320 -700,-700l0 -19010c0,-380 320,-700 700,-700zm29630 -67200l0 0c380,0 690,320 690,700l0 19010c0,380 -310,700 -690,700l0 0c-390,0 -700,-320 -700,-700l0 -19010c0,-380 310,-700 700,-700zm-31310 -106900l0 198820 3510 -830 0 -4350 0 -4050 0 -185450 0 -3690 -3510 -450zm-670 198840l0 -198830 -32210 4030 0 188080 32210 6720zm42400 -78620c320,0 610,130 820,340 210,210 340,500 340,820 0,320 -130,610 -340,820l0 0c-210,210 -500,340 -820,340 -320,0 -610,-130 -820,-340 -210,-210 -340,-500 -340,-820 0,-320 130,-610 340,-820l0 0c210,-210 500,-340 820,-340zm350 820c-90,-90 -210,-150 -350,-150 -140,0 -260,60 -350,140l0 10c-90,80 -140,210 -140,340 0,140 50,260 140,350 90,90 210,150 350,150 140,0 260,-60 350,-150 90,-90 140,-210 140,-350 0,-130 -50,-260 -140,-340zm-1460 -2430c100,0 190,10 290,20 70,10 140,20 210,30 170,-30 340,-50 510,-50 700,0 1340,290 1810,750 460,470 750,1110 750,1810l0 2210c0,700 -290,1340 -750,1810 -470,460 -1110,750 -1810,750 -170,0 -340,-20 -510,-50 -70,10 -140,30 -210,30 -100,10 -190,20 -290,20 -710,0 -1350,-290 -1810,-750 -460,-470 -750,-1110 -750,-1810l0 -2210c0,-700 290,-1340 750,-1810 460,-460 1100,-750 1810,-750zm-970 940c-130,80 -260,170 -370,290 -340,340 -550,810 -550,1330l0 2210c0,520 210,990 550,1340 110,110 240,200 370,280 -300,-360 -500,-820 -560,-1310l0 -10 -10 -10 0 -10 0 -30 0 -20 0 -10 -10 -20 0 -10 0 -20 0 -10 0 -20 0 -30 0 0 0 -10 0 -10 0 -20 0 -10 0 0 0 -30 0 0 0 -30 0 -2210 0 -30 0 0 0 -20 0 -10 0 -10 0 -20 0 -10 0 -10 0 0 0 -30 0 -20 0 -10 0 -20c10,-30 10,-60 10,-90l0 -10 10 -10 0 -10c60,-490 260,-950 560,-1310zm1980 -270c-520,0 -990,210 -1340,560 -300,300 -510,710 -550,1160l0 10 0 20 0 0 0 20 0 0 0 20 0 0 0 20 0 10 0 10 0 10 0 10 0 20 0 0 0 20 0 2210 0 20 0 0 0 20 0 10 0 10 0 10 0 10 0 20 0 0 0 20 0 0 0 20 0 0 0 20 0 10c40,450 250,860 550,1170 350,340 820,550 1340,550 520,0 990,-210 1340,-550 340,-350 550,-820 550,-1340l0 -2210c0,-520 -210,-990 -550,-1330 -350,-350 -820,-560 -1340,-560zm10530 -6750l-9000 0 0 1280 9000 0 0 -1280zm-9000 -660l10 0c-130,-220 -290,-410 -480,-560 -280,-200 -640,-320 -1080,-320 -470,0 -950,240 -1310,640 -340,370 -570,880 -580,1430l0 0 0 30 0 20 0 0c10,550 240,1050 580,1430 370,400 860,650 1310,650 450,0 800,-110 1070,-320 140,-100 260,-230 370,-390l-550 0 -1520 0 0 -2610 340 0 1180 0 330 0 330 0zm750 0l8920 0 0 2610 -9000 0c-190,370 -430,690 -750,930 -380,280 -860,450 -1470,450 -130,0 -270,-20 -400,-40 -130,30 -320,40 -610,40 -470,0 -1240,-390 -1800,-1000 -430,-480 -760,-1090 -760,-1770 0,-680 330,-1290 760,-1770 560,-610 1330,-1000 1800,-1000 280,0 470,10 600,40 140,-30 280,-40 410,-40 600,0 1080,170 1470,460 370,270 640,650 830,1090zm-1410 660l-850 0 0 1280 850 0 0 -1280zm-3450 560c0,-540 140,-1040 390,-1470 -50,50 -100,100 -150,150 -330,360 -580,820 -580,1320 0,490 250,950 580,1320 50,50 100,100 150,150 -250,-430 -390,-930 -390,-1470zm-5990 85730l0 -198820 -3510 450 0 3690 0 185450 0 4050 0 4350 3510 830zm-151430 -197780l-21250 0 21250 1370 0 -1370zm-31570 -670l31570 0 0 -1410 -53310 0 21740 1410zm-37680 670l-8030 0 0 1930 8030 0 0 -1930zm-8030 -670l8030 0 0 -1390 150 -20 -8180 0 0 1410zm8030 3270l-8030 0 0 1400 8030 0 0 -1400zm0 3070l-8030 0 0 182880 8030 0 0 -182880zm-8030 -9420l77280 0 0 -6490c-25760,0 -51520,10 -77280,0l0 6490zm78020 -9990l0 0c0,390 -310,700 -690,700l-19010 0c-390,0 -700,-310 -700,-700l0 0c0,-380 310,-690 700,-690l19010 0c380,0 690,310 690,690zm-60160 0l0 0c0,390 -320,700 -700,700l-16740 0c-390,0 -700,-310 -700,-700l0 0c0,-380 310,-690 700,-690l16740 0c380,0 700,310 700,690zm63260 -1670l-85720 0 840 3500 3760 0 77280 0 3400 0 440 -3500zm-85760 -670l85760 0 -3730 -27340 -77520 0 -4510 27340zm86780 5840l-3190 0 0 6490 0 5230 0 780 0 188660 6230 0 0 -235170 0 -160 -6240 0 10 40 3890 28610 -700 5520zm-83810 0l-2730 0 -680 0 -1310 -5470 80 -450 0 -10 70 -440 10 -20 70 -430 0 -30 70 -420 10 -40 60 -410 10 -50 70 -390 10 -70 60 -380 10 -80 70 -370 10 -90 60 -360 20 -100 50 -350 20 -100 60 -350 20 -110 50 -330 20 -130 60 -320 20 -140 50 -310 20 -150 50 -300 30 -160 50 -290 30 -170 40 -280 30 -180 50 -270 30 -190 40 -250 30 -200 40 -250 40 -210 40 -240 30 -220 40 -230 40 -230 40 -220 40 -240 30 -210 40 -250 30 -190 50 -270 30 -180 40 -280 30 -170 50 -290 20 -160 50 -300 30 -150 50 -310 20 -140 50 -310 30 -130 50 -330 20 -120 60 -340 10 -110 60 -350 20 -100 60 -360 10 -90 60 -370 20 -80 60 -380 10 -60 60 -400 10 -50 70 -410 10 -40 60 -420 10 -30 70 -420 0 -30 80 -430 0 -20 70 -440 0 -10 80 -440 0 -10 70 -440 0 -20 70 -430 10 -30 70 -420 0 -40 70 -410 10 -50 70 -400 80 -520 60 -370 20 -80 60 -370 10 -90 60 -360 20 -100 50 -350 20 -110 60 -340 20 -120 50 -320 20 -140 60 -310 20 -150 50 -300 30 -160 40 -290 30 -170 50 -280 30 -180 40 -270 30 -180 40 -260 40 -200 40 -250 30 -210 40 -240 -6240 0 0 235330 6230 0 0 -2370 0 -198790zm1670 201160l8030 0 0 -700 -8030 0 0 700zm8030 1680l-8030 0 0 0 -9570 0 0 -245590 96420 0 0 840 0 244750 -8700 0c-21560,2320 -43110,4650 -64670,6970l-5450 -1300 0 -5670zm3400 -86720l0 0c390,0 700,320 700,700l0 19010c0,380 -310,700 -700,700l0 0c-380,0 -690,-320 -690,-700l0 -19010c0,-380 310,-700 690,-700zm10450 13300c320,0 610,130 820,340 210,210 340,500 340,820 0,320 -130,610 -340,820l0 0c-210,210 -500,340 -820,340 -320,0 -610,-130 -820,-340 -210,-210 -340,-500 -340,-820 0,-320 130,-610 340,-820l0 0c210,-210 500,-340 820,-340zm350 820c-90,-90 -210,-150 -350,-150 -140,0 -260,60 -350,140l0 10c-90,80 -140,210 -140,340 0,140 50,260 140,350 90,90 220,150 350,150 140,0 260,-60 350,-150 90,-90 140,-210 140,-350 0,-130 -50,-260 -140,-340zm-1460 -2430c100,0 200,10 290,20 80,10 140,20 210,30 170,-30 340,-50 510,-50 710,0 1350,290 1810,750 460,470 750,1110 750,1810l0 2210c0,700 -290,1340 -750,1810 -460,460 -1100,750 -1810,750 -170,0 -340,-20 -510,-50 -60,10 -130,30 -210,30 -90,10 -190,20 -290,20 -700,0 -1340,-290 -1810,-750 -460,-470 -750,-1110 -750,-1810l0 -2210c0,-700 290,-1340 750,-1810 470,-460 1110,-750 1810,-750zm-970 940c-130,80 -250,170 -370,290 -340,340 -550,810 -550,1330l0 2210c0,520 210,990 550,1340 120,110 240,200 370,280 -280,-340 -480,-770 -550,-1240l-10 -20 0 0 0 -30 0 -20 0 -10 0 -10 -10 -10 0 -10 0 -20 0 -20 0 -10 0 -20 0 -10 -10 -20 0 -10 0 -20 0 -30 0 0 0 -10 0 -10 0 -20 0 -10 0 0 0 -30 0 0 0 -30 0 -2210 0 -30 0 0 0 -20 0 -10 0 -10 0 -20 0 -10 0 -10 0 0 0 -30 0 -20 0 -10 10 -20 0 -10 0 -20 0 -10 0 -20 0 -20 0 -10 10 -10 0 -10 0 -10 0 -20 0 -30 0 0 10 -20c70,-470 270,-890 550,-1240zm1980 -270c-520,0 -990,210 -1340,560 -300,300 -500,710 -550,1160l0 10 0 20 0 0 0 20 0 0 0 20 0 0 0 20 0 10 0 10 0 10 0 10 0 20 0 0 0 20 0 2210 0 20 0 0 0 20 0 10 0 10 0 10 0 10 0 20 0 0 0 20 0 0 0 20 0 0 0 20 0 10c50,450 250,860 550,1170 350,340 820,550 1340,550 520,0 990,-210 1340,-550 340,-350 550,-820 550,-1340l0 -2210c0,-520 -210,-990 -550,-1330 -350,-350 -820,-560 -1340,-560zm10530 -6750l-8990 0 0 1280 8990 0 0 -1280zm-8250 -660l8920 0 0 2610 -9000 0c-210,390 -500,710 -850,950 -390,270 -860,430 -1370,430 -170,0 -340,-20 -500,-50 -70,10 -140,20 -210,30 -100,10 -200,20 -300,20 -710,0 -1350,-310 -1820,-820 -450,-500 -740,-1190 -740,-1950 0,-760 290,-1450 740,-1950 470,-510 1110,-820 1820,-820 100,0 200,0 300,20 70,0 140,20 210,30 160,-30 330,-50 500,-50 540,0 1050,180 1460,490 360,260 650,630 840,1060zm-2590 0l1180 0 330 0 330 0c-140,-210 -300,-390 -490,-530 -300,-220 -670,-350 -1060,-350 -250,0 -490,50 -710,150l0 0 -20 10 0 0 -10 0 -10 10 -10 0 -10 10 -10 0 -10 10 -10 0 -10 10 -10 0c-250,140 -480,340 -650,580 -210,290 -350,640 -400,1020l0 0 0 20c-10,20 -10,50 -10,70l0 20 0 0 0 20 0 10 -10 20 0 20 0 0 0 10 0 20 0 10 0 10 0 10 0 10 0 20 0 0 0 30 0 20 0 10 0 10 0 10 0 20 0 10 0 10 0 20 0 0 0 10 0 20 10 20 0 0 0 20 0 10 0 20c0,20 0,40 10,60l0 30 0 0c50,380 190,730 400,1020 170,240 400,440 650,580l10 0 10 0 10 10 10 0 10 10 10 0 10 10 10 0 10 10 0 0 20 10 0 0c220,100 460,150 710,150 370,0 710,-110 1000,-310 160,-110 300,-240 420,-400l-530 0 -1520 0 0 -2610 340 0zm1180 660l-850 0 0 1280 850 0 0 -1280zm-2900 -1150c30,-50 70,-100 110,-150 -160,100 -310,220 -440,360 -340,380 -560,910 -560,1500 0,590 220,1120 560,1500 130,140 280,260 440,350 -40,-40 -80,-90 -110,-140 -300,-410 -490,-920 -540,-1460l0 -10 0 0 0 -30 0 0 0 -30 0 -10 0 -20 0 -10 -10 -40 0 -10 0 -10 0 -20 0 -30 0 0 0 -30 0 -30 0 -10 0 -20 0 -20 0 -10 0 -20 10 -30 0 -10 0 -30 0 0 0 -30 0 0 0 -30 0 -10 0 0c50,-550 240,-1050 540,-1460zm59100 -155420l6330 0 0 -6240 -93080 0 0 6240 6350 0 0 -10 80400 0 0 10zm-64970 44020l0 198910 63400 -6840 0 -187970 -63400 -4100zm-670 198840l0 -198820 -3510 450 0 189140 0 4050 0 4350 3510 830zm199000 -506750l0 187830 1830 0 0 -187830 -1830 0zm-1670 187830l0 -710 -8210 0 0 710 8210 0zm0 -2380l0 -185450 -1590 0 0 185450 1590 0zm5170 -185450l0 185450 1580 0 0 -185450 -1580 0zm0 187120l0 710 9320 0 0 -710 -9320 0zm-7430 -1670l0 -185450 -5950 0 0 185450 5950 0zm9680 -185450l0 185450 7070 0 0 -185450 -7070 0zm7070 189500l-9320 0 -5170 0 -8210 0 0 5670 -5490 1310 -33480 -6980 -8650 0 0 -199070 149140 0 0 840 0 198230 -8700 0c-21560,2320 -43110,4650 -64670,6970l-5450 -1300 0 -5670zm-24370 0l0 -4050 0 0 0 -185450 0 -3690 -3510 -450 0 198820 3510 -830 0 -4350zm-1830 -86740l0 0c380,0 700,320 700,700l0 19010c0,390 -320,700 -700,700l0 0c-380,0 -690,-310 -690,-700l0 -19010c0,-380 310,-700 690,-700zm0 -103800l0 0c380,0 700,320 700,700l0 19010c0,380 -320,700 -700,700l0 0c-380,0 -690,-320 -690,-700l0 -19010c0,-380 310,-700 690,-700zm0 171000l0 0c380,0 700,320 700,700l0 19010c0,380 -320,700 -700,700l0 0c-380,0 -690,-320 -690,-700l0 -19010c0,-380 310,-700 690,-700zm29630 -67200l0 0c380,0 700,320 700,700l0 19010c0,390 -320,700 -700,700l0 0c-380,0 -700,-310 -700,-700l0 -19010c0,-380 320,-700 700,-700zm-31970 91940l0 -198830 -32220 4030 0 188080 32220 6720zm42390 -78620c320,0 610,130 820,340 210,210 340,500 340,820 0,320 -130,610 -340,820l0 0c-210,210 -500,340 -820,340 -320,0 -610,-130 -820,-340 -210,-210 -340,-500 -340,-820 0,-320 130,-610 340,-820l0 0c210,-210 500,-340 820,-340zm350 820c-90,-90 -210,-150 -350,-150 -130,0 -260,60 -350,140l0 10c-90,80 -140,210 -140,340 0,140 50,260 140,350 90,90 220,150 350,150 140,0 260,-60 350,-150 90,-90 150,-210 150,-350 0,-130 -60,-260 -150,-340zm-1460 -2430c100,0 200,10 290,20 80,10 150,20 220,30 160,-30 330,-50 500,-50 710,0 1350,290 1810,750 470,470 750,1110 750,1810l0 2210c0,700 -280,1340 -750,1810 -460,460 -1100,750 -1810,750 -170,0 -340,-20 -500,-50 -70,10 -140,30 -220,30 -90,10 -190,20 -290,20 -700,0 -1340,-290 -1810,-750 -460,-470 -750,-1110 -750,-1810l0 -2210c0,-700 290,-1340 750,-1810 470,-460 1110,-750 1810,-750zm-960 940c-140,80 -260,170 -370,290 -350,340 -560,810 -560,1330l0 2210c0,520 210,990 560,1340 110,110 230,200 370,280 -310,-360 -510,-820 -570,-1310l0 -10 0 -10 0 -10 -10 -30 0 -20 0 -10 0 -20 0 -10 0 -20 0 -10 -10 -20 0 -30 0 0 0 -10 0 -10 0 -20 0 -10 0 0 0 -30 0 0 0 -30 0 -2210 0 -30 0 0 0 -20 0 -10 0 -10 0 -20 0 -10 0 -10 0 0 0 -30 10 -20 0 -10 0 -20c0,-30 0,-60 10,-90l0 -10 0 -10 0 -10c60,-490 260,-950 570,-1310zm1970 -270c-520,0 -990,210 -1340,560 -300,300 -500,710 -540,1160l0 10 -10 20 0 0 0 20 0 0 0 20 0 0 0 20 0 10 0 10 0 10 0 10 0 20 0 0 0 20 0 2210 0 20 0 0 0 20 0 10 0 10 0 10 0 10 0 20 0 0 0 20 0 0 0 20 0 0 10 20 0 10c40,450 240,860 540,1170 350,340 820,550 1340,550 520,0 1000,-210 1340,-550 340,-350 550,-820 550,-1340l0 -2210c0,-520 -210,-990 -550,-1330 -340,-350 -820,-560 -1340,-560zm10530 -6750l-8990 0 0 1280 8990 0 0 -1280zm-8990 -660l0 0c-130,-220 -290,-410 -480,-560 -280,-200 -630,-320 -1070,-320 -470,0 -960,240 -1320,640 -340,370 -570,880 -580,1430l0 10 0 20 0 20 0 0c10,550 240,1050 580,1430 370,400 860,650 1320,650 450,0 790,-110 1060,-320 140,-100 270,-230 380,-390l-560 0 -1520 0 0 -2610 340 0 1180 0 330 0 340 0zm750 0l8910 0 0 2610 -9000 0c-190,370 -430,690 -750,930 -380,280 -860,450 -1460,450 -140,0 -280,-20 -410,-40 -130,30 -320,40 -600,40 -480,0 -1240,-390 -1800,-1000 -440,-480 -770,-1090 -770,-1770 0,-680 330,-1290 770,-1770 560,-610 1320,-1000 1800,-1000 280,0 470,10 590,40 140,-30 280,-40 420,-40 590,0 1080,170 1470,460 360,270 640,650 830,1090zm-1420 660l-850 0 0 1280 850 0 0 -1280zm-3450 560c0,-540 140,-1040 390,-1470 -50,50 -100,100 -140,150 -340,360 -590,830 -590,1320 0,490 250,950 590,1320 40,50 90,100 140,150 -250,-430 -390,-930 -390,-1470zm59760 -109950l0 188830 6220 0 0 -188670 0 -160 -6220 0zm-139580 0l0 188830 6220 0 0 -188830 -6220 0zm74500 -3160l0 198910 63410 -6840 0 -187970 -63410 -4100zm-670 198840l0 -198820 -3510 450 0 3690 0 185450 0 4050 0 4350 3510 830z"></path> </g> </svg> 